# xmcd CD database file generated by OrangeCD 5.2
#
# Track frame offsets:
#	150
#	18082
#	31595
#	48275
#	63175
#	75790
#	90157
#	106747
#	117252
#	138297
#	154427
#	165872
#	180672
#	196202
#	214552
#	230055
#	247717
#	261767
#	278737
#	299602
#	313017
#
# Disc length: 4413 seconds
#
# Revision: 6
# Processed by: cddbd v1.5.1PL0 Copyright (c) Steve Scherf et al.
# Submitted via: OrangeCD 5.2
#
DISCID=00113b15
DTITLE=Emmylou Harris - Portraits [CD2]
DYEAR=1996
DGENRE=Country
TTITLE0=Hello Stranger
TTITLE1=Everytime You Leave (With Don Everly)
TTITLE2=Beneath Still Waters
TTITLE3=Blue Kentucky Girl
TTITLE4=To Daddy
TTITLE5=Evangeline (With The Band)
TTITLE6=Save The Last Dance For Me
TTITLE7=Mister Sandman (With Dolly Parton and Linda Ronstadt)
TTITLE8=And I Love You So
TTITLE9=If I Needed You (With Don Williams)
TTITLE10=Roses In The Snow
TTITLE11=The Boxer
TTITLE12=Wayfaring Stranger
TTITLE13=Millworker
TTITLE14=Dimming Of The Day
TTITLE15=Heaven Ain't Ready For You Yet
TTITLE16=Juanita
TTITLE17=Born To Run
TTITLE18=Price You Pay
TTITLE19=Sweet Chariot
TTITLE20=That Lovin' You Feelin' Again (With Roy Orbison)
EXTD=
EXTT0=
EXTT1=w. don everly
EXTT2=
EXTT3=
EXTT4=
EXTT5=w. the band
EXTT6=
EXTT7=w. parton and ronstadt
EXTT8=
EXTT9=w. don williams
EXTT10=
EXTT11=
EXTT12=
EXTT13=
EXTT14=
EXTT15=
EXTT16=
EXTT17=
EXTT18=
EXTT19=
EXTT20=w. roy orbison
PLAYORDER=
